<?xml version="1.0" encoding="UTF-8" standalone="no"?>
<svg id="svgElement" width="512pt" height="512pt" version="1.1" viewBox="0 0 512 512" xmlns="http://www.w3.org/2000/svg" xmlns:svg="http://www.w3.org/2000/svg">
  <defs id="defs2593" />
  <g id="g2588">
    <g id="g2584">
      <path class="large" d="m155.06 336.79c0-1.9575.01058-3.6878-6e-4-6-.00427-.88725.3192-1.4438-.34717-5.25-.4383-2.5035-1.332-6.7725-1.6881-9.75-1.5803-13.214-.20392-27.266-2.8495-40.5-2.4364-12.188-6.9692-22.49-10.844-34.5-1.1856-3.675-1.969-6.789-2.5972-10.5-2.7287-16.118-3.2114-32.354-3.4265-48.75-.20519-15.646 1.6084-33.634 9.9653-45.75 4.9751-7.2128 12.714-15.435 18.284-22.5 10.242-12.993 23.977-23.773 37.754-32.478 6.1208-3.8676 13.524-6.2722 20.25-9.3993 10.046-4.6713 20.368-11.552 31.5-12.093 7.1093-.3456 14.032.33637 21 1.3721 3.84.57083 6.7658 1.663 10.5 3.0602 4.0935 1.5314 7.1078 2.9105 10.499 5.32 3.0517 2.168 6.318 7.4436 8.1787 9.4821 2.1773 2.3839 3.0255 1.8275 3.8333 2.0098 2.1997.49612 4.0185.45937 5.9887.47565" style="fill:none;stroke-linecap:round;stroke-linejoin:round;stroke-width:19.5;stroke:#040404" id="path2574" />
      <path class="large" d="m322.75 325.03c-3.8805 6.9696-9.402 13.321-12.601 21-.8963 2.1527-1.5263 5.6229-1.8338 7.5-.8332 5.0862 1.2405 5.702-2.0565 10.262-.528.72991-5.3707 2.7196-5.8747 3.4769-3.075 4.6176-1.1865 5.4229-1.6988 11.762-.6315 7.82-3.4245 17.798-5.6197 25.5-4.2855 15.04-7.1655 31.562-10.894 46.5-1.1633 4.6605-2.0648 10.179-2.16 15-.0278 1.4408.2017 4.8592.5317 5.9962 1.044 3.6052 2.5095 3.7755 3.957 4.5038m-80.25-108.75c1.9201.24262 3.5892.53737 6 .75.66263.05842 1.1999-.0126 4.5.603 1.1315.21105 3.3387.65295 4.5.76912 3.7149.3714 8.1994.12788 12 .12788 14.051 0 27.343-1.7956 41.25-2.9358 4.7549-.38977 12.976-1.5573 17.25-1.5642 6.6743-.01072 8.421.39045 10.5 1.5m7.5-1.5c2.1458.00022 5.7285.41595 11.25.72338 4.6545.25919 16.07 2.3641 19.5 2.8096 3.1538.40965 3.6615.2124 4.5.21645 2.3415.01132 4.0463 6e-4 6 6e-4m-145.5-1.5h.75" style="fill:none;stroke-linecap:round;stroke-linejoin:round;stroke-width:19.5;stroke:#030303" id="path2576" />
      <path class="large" d="m265.43 166.66c1.6229-1.3485 5.4886-2.4212 8.0116-3.2436 6.2104-2.0246 19.234-7.3996 23.25-8.8727 2.9254-1.073 3.5411-.6096 4.4989-.62618" style="fill:none;paint-order:normal;stroke-linecap:round;stroke-linejoin:round;stroke-width:19.5;stroke:#040404" id="path2578" />
      <path class="large" d="m140.92 100.99c-.00675-.8037-.66847-1.7366 1.5671-3.8357 1.4272-1.34 3.7906-2.6518 5.7616-3.9045 4.4085-2.8017 8.6839-5.267 13.5-7.846 6.6943-3.5847 14.465-6.1656 21-9.9364 2.7387-1.5803 4.903-3.0328 7.5-4.9612 5.2511-3.8992 8.4517-7.1177 14.25-9.3148 5.3272-2.0186 9.7912-3.475 15-5.213 5.9288-1.9781 19.209-8.1122 24-9.7755 2.9715-1.0316 3.5948-.68595 4.5-.71295 2.2928-.06825 4.0395-.01155 6-.01155" style="fill:none;stroke-linecap:round;stroke-linejoin:round;stroke-width:19.825;stroke:#040404" id="path2580" />
      <path class="large" d="m283.98 57.299c1.7045-.2154 3.2122-.5916 5.2512-.67132.938-.0366 1.6433-.47468 5.2488.93232 3.2771 1.2789 6.2585 2.4039 8.6708 5.0324 3.6158 3.94 6.7691 9.1184 10.832 12.834 13.215 12.085 21.279 25.643 27.698 42.623 1.4602 3.8625 2.0283 7.224 3.2216 11.25 1.0794 3.6412 1.6098 6.9735 2.6552 10.5.8543 2.8822 1.657 5.2162 2.1013 8.25 2.0582 14.058-.7948 27.476-2.7761 41.25-1.3828 9.6128-1.2504 19.604-3.0498 29.25-1.3308 7.1348-1.1185 13.858-.5329 21 .1712 2.0888 1.3197 6.6008 1.3998 8.25.1566 3.2228.03 3.6735.0301 4.5 2e-4 2.325 0 4.0432 0 6m-61.5-201h.75m67.5 101.25h8.25" style="fill:none;stroke-linecap:round;stroke-linejoin:round;stroke-width:19.5;stroke:#030303" id="path2582" />
    </g>
    <path d="m278.79 62.106c2.2332.00615 4.3217-.0573 6.7494.47573 1.0372.22769 1.9497-.31898 4.9295 2.6348 3.5923 3.5611 10.543 12.14 14.433 15.957 3.4633 3.3986 6.0655 5.5242 12.426 12.56 2.0274 2.2423 2.4363 3.016 2.8137 3.6233.794 1.2778 1.1013 1.5506 2.2425 5.9994.3105 1.211.7662 3.142 1.2181 4.5.665 1.9983 1.3626 3.3616 2.4485 5.25 1.5519 2.6987 3.7803 6.47 5.0532 9 1.5858 3.1516 1.8997 3.1059 2.9607 6.75 1.2954 4.449 6.2677 18.049 8.3577 20.889 1.9358 2.631 2.9128 2.0978 3.8697 2.25 1.8438.29325 3.5101.111 5.2477.111m-9 0v9" style="fill:none;stroke-linecap:round;stroke-linejoin:round;stroke-width:19.5;stroke:#030303" id="path2586" />
  </g>
</svg>
